# xmcd CD database file
#
# Track frame offsets:
#	150
#	24996
#	47511
#	63249
#	85960
#	104880
#	126156
#	141138
#	159654
#	180262
#	200408
#	219951
#	239964
#	261468
#	276647
#	299722
#	320889
#	332687
#
# Disc length: 4700 seconds
#
# Revision: 0
# Processed by: cddbd v1.5.1PL2 Copyright (c) Steve Scherf et al.
# Submitted via: CDex 1.51
#
DISCID=26125a12
DTITLE=JAPANESE - CDシングル（ウィークリー2005年10月24日号）
DYEAR=2005
DGENRE=JPop
TTITLE0=V6−Orange
TTITLE1=レミオロメン - 蒼の世界
TTITLE2=Two As One
TTITLE3=REIRA starring YUNA ITO - ENDLESS STORY
TTITLE4=浜田省吾 -Thank you
TTITLE5=雅-miyavi- - 結婚式の唄
TTITLE6=大塚愛 - プラネタリウム
TTITLE7=HYDE - COUNTDOWN (PV音源)
TTITLE8=柴咲コウ-Sweet Mom
TTITLE9=GLAMOROUS SKY-NANA Starring MIKA NAKASHIMA-中島美嘉
TTITLE10=浜崎あゆみ - HEAVEN
TTITLE11=宇多田ヒカル - Be My Last
TTITLE12=平井　堅 - POP STAR
TTITLE13=Ken Yokoyama  How Many More Times
TTITLE14=SEAMO with BENNIE K - a love story
TTITLE15=一青窈 - かざぐるま
TTITLE16=Pecori Night  Gorie with Jasmine and Joann
TTITLE17=８月のクリスマス　山崎まさよし
EXTD=YEAR: 2005
EXTT0=
EXTT1=
EXTT2=
EXTT3=
EXTT4=
EXTT5=
EXTT6=
EXTT7=
EXTT8=
EXTT9=
EXTT10=
EXTT11=
EXTT12=
EXTT13=
EXTT14=
EXTT15=
EXTT16=
EXTT17=
PLAYORDER=
